:SAMPLES-PER-SECOND 30
:FULLY-SPECIFIED
:DEGREES
344
root  -0.594039 33.618 -4.07599 0.289917 39.2006 -5.96568
LeftUpLeg  -13.3234 -1.89451 18.5041
LeftLeg  9.70561 -3.92443 -0.414912
LeftFoot  11.1202 0.0677011 -0.815375
LeftToes  -33.7874 8.556e-007 1.17171e-007
Spine  2.22084 1.69631 3.41478
Spine1  4.38445 3.45185 6.55507
RightShoulder  0.119588 5.69389 8.60497
RightArm  -33.0625 -14.7017 67.3599
RightForeArm  29.7403 16.5154 2.9914
RightHand  1.06537 -12.9992 -8.95638
LeftShoulder1  0.0180425 1.4466 -9.80165
LeftArm  -15.1378 14.9634 -73.8694
LeftForeArm  27.0079 -19.6704 -3.60689
LeftHand  0.12391 4.93253 2.60329
HEad  -14.7461 39.2244 -11.928
RightUpLeg  -9.30557 -10.1646 7.34894
RightLeg  14.4598 3.01991 0.575286
RightFoot  -3.33933 -0.0123811 -0.169868
RightToes  -26.4405 -0.127312 -0.234465
345
root  -0.585745 33.614 -4.06143 0.276695 39.2261 -5.95356
LeftUpLeg  -13.3493 -1.88933 18.4956
LeftLeg  9.84183 -3.95693 -0.427856
LeftFoot  11.0283 0.0678617 -0.81787
LeftToes  -33.8088 8.556e-007 1.17171e-007
Spine  2.21411 1.68924 3.40906
Spine1  4.36996 3.43043 6.55128
RightShoulder  0.119597 5.72199 8.6391
RightArm  -33.4201 -15.0099 67.4143
RightForeArm  30.1886 16.0967 2.91108
RightHand  1.0652 -13.0139 -8.94425
LeftShoulder1  0.0180425 1.43811 -9.80664
LeftArm  -15.3423 15.1124 -73.8793
LeftForeArm  27.1149 -19.4001 -3.55318
LeftHand  0.12514 4.88857 2.66588
HEad  -14.8313 39.3532 -12.1284
RightUpLeg  -9.30897 -10.1558 7.33563
RightLeg  14.5798 2.95772 0.569854
RightFoot  -3.4495 -0.0123433 -0.170454
RightToes  -26.2729 -0.127312 -0.234465
346
root  -0.581141 33.6121 -4.04944 0.270997 39.2318 -5.94445
LeftUpLeg  -13.3566 -1.91911 18.4948
LeftLeg  9.92448 -3.93292 -0.431016
LeftFoot  10.964 0.0674044 -0.810763
LeftToes  -33.7484 8.556e-007 1.17171e-007
Spine  2.20188 1.67725 3.40456
Spine1  4.34512 3.39797 6.55025
RightShoulder  0.119621 5.69923 8.66499
RightArm  -33.4605 -15.3518 67.4458
RightForeArm  30.2876 15.8067 2.85575
RightHand  1.0865 -13.1436 -9.0356
LeftShoulder1  0.0180425 1.45717 -9.82563
LeftArm  -15.4108 15.26 -73.8539
LeftForeArm  27.1504 -19.1783 -3.50925
LeftHand  0.124195 4.95739 2.66261
HEad  -14.8516 39.4555 -12.3539
RightUpLeg  -9.29903 -10.1275 7.3317
RightLeg  14.6321 2.92695 0.566689
RightFoot  -3.50796 -0.0122349 -0.172138
RightToes  -26.114 -0.127312 -0.234465
347
root  -0.575218 33.6109 -4.03726 0.264178 39.2236 -5.93922
LeftUpLeg  -13.3402 -1.94558 18.4976
LeftLeg  9.96441 -3.90013 -0.430191
LeftFoot  10.9215 0.066941 -0.803561
LeftToes  -33.7468 8.556e-007 1.17171e-007
Spine  2.18449 1.66339 3.39837
Spine1  4.30954 3.3626 6.55053
RightShoulder  0.119629 5.7095 8.68622
RightArm  -33.8177 -15.6902 67.491
RightForeArm  30.6705 15.5069 2.79857
RightHand  1.08373 -13.1391 -9.01503
LeftShoulder1  0.0180425 1.45871 -9.8119
LeftArm  -15.589 15.3888 -73.8567
LeftForeArm  27.2879 -18.916 -3.45743
LeftHand  0.12414 4.97144 2.67522
HEad  -14.7919 39.5956 -12.566
RightUpLeg  -9.26816 -10.1333 7.3267
RightLeg  14.6426 2.94028 0.569822
RightFoot  -3.54813 -0.0120552 -0.174928
RightToes  -26.0844 -0.127312 -0.234465
348
root  -0.57461 33.6091 -4.03363 0.257226 39.1565 -5.93209
LeftUpLeg  -13.3238 -1.94431 18.5029
LeftLeg  10.0276 -3.83953 -0.427826
LeftFoot  10.8709 0.0660826 -0.79022
LeftToes  -33.7577 8.556e-007 1.17171e-007
Spine  2.1792 1.64792 3.39478
Spine1  4.2981 3.32495 6.5506
RightShoulder  0.119645 5.70236 8.7097
RightArm  -33.9151 -15.9539 67.4948
RightForeArm  30.9019 15.3007 2.75936
RightHand  1.08524 -13.1398 -9.04897
LeftShoulder1  0.0180425 1.48307 -9.83101
LeftArm  -15.6981 15.5082 -73.8216
LeftForeArm  27.2956 -18.7651 -3.42773
LeftHand  0.123081 5.04219 2.66527
HEad  -14.8428 39.8088 -12.7789
RightUpLeg  -9.28001 -10.0918 7.32544
RightLeg  14.7094 2.95767 0.576747
RightFoot  -3.57554 -0.011844 -0.178207
RightToes  -26.1134 -0.127312 -0.234465
349
root  -0.574816 33.6072 -4.03193 0.255933 39.0858 -5.92521
LeftUpLeg  -13.3094 -1.97785 18.5124
LeftLeg  10.0798 -3.7463 -0.420939
LeftFoot  10.8314 0.0648573 -0.771176
LeftToes  -33.6984 8.556e-007 1.17171e-007
Spine  2.17659 1.63186 3.39158
Spine1  4.29198 3.28688 6.54897
RightShoulder  0.119659 5.6849 8.72175
RightArm  -33.916 -16.1681 67.4846
RightForeArm  31.0294 15.1593 2.73254
RightHand  1.08564 -13.1619 -9.02469
LeftShoulder1  0.0180425 1.49264 -9.84323
LeftArm  -15.773 15.5937 -73.7864
LeftForeArm  27.3301 -18.6319 -3.40154
LeftHand  0.123901 5.02438 2.71974
HEad  -14.9444 40.0007 -13.0257
RightUpLeg  -9.29648 -10.049 7.32524
RightLeg  14.7666 2.97934 0.584037
RightFoot  -3.59553 -0.0116254 -0.181602
RightToes  -26.0848 -0.127312 -0.234465
350
root  -0.575648 33.6063 -4.03281 0.253048 39.0019 -5.91713
LeftUpLeg  -13.2918 -1.99692 18.5199
LeftLeg  10.1309 -3.65552 -0.414088
LeftFoot  10.7937 0.0636599 -0.752568
LeftToes  -33.6923 8.556e-007 1.17171e-007
Spine  2.1728 1.61397 3.38693
Spine1  4.28323 3.24692 6.54357
RightShoulder  0.119666 5.68335 8.73365
RightArm  -33.9922 -16.3162 67.4623
RightForeArm  31.203 15.0391 2.70972
RightHand  1.08681 -13.1986 -9.02457
LeftShoulder1  0.0180425 1.48786 -9.85695
LeftArm  -15.8707 15.6596 -73.7527
LeftForeArm  27.3627 -18.5435 -3.38419
LeftHand  0.124316 5.01448 2.74596
HEad  -15.1269 40.2082 -13.2632
RightUpLeg  -9.30101 -10.0068 7.32587
RightLeg  14.7981 3.01694 0.593107
RightFoot  -3.60905 -0.0114 -0.185103
RightToes  -26.0718 -0.127312 -0.234465
351
root  -0.577542 33.6058 -4.035 0.245746 38.927 -5.91384
LeftUpLeg  -13.2699 -2.01531 18.5266
LeftLeg  10.1584 -3.57536 -0.406784
LeftFoot  10.7815 0.0626789 -0.737321
LeftToes  -33.708 8.556e-007 1.17171e-007
Spine  2.16702 1.59415 3.37816
Spine1  4.27011 3.20431 6.52897
RightShoulder  0.119665 5.69204 8.73742
RightArm  -34.0831 -16.4309 67.444
RightForeArm  31.331 14.9711 2.69681
RightHand  1.08791 -13.1959 -9.00181
LeftShoulder1  0.0180425 1.46124 -9.85556
LeftArm  -15.9602 15.688 -73.7229
LeftForeArm  27.3988 -18.4767 -3.37106
LeftHand  0.123546 5.04306 2.71021
HEad  -15.25 40.3902 -13.4193
RightUpLeg  -9.29939 -9.98685 7.3253
RightLeg  14.8123 3.0715 0.604602
RightFoot  -3.61193 -0.0111477 -0.189021
RightToes  -26.0235 -0.127312 -0.234465
352
root  -0.580202 33.6051 -4.04015 0.235564 38.8547 -5.91682
LeftUpLeg  -13.2596 -2.02645 18.5365
LeftLeg  10.1985 -3.49871 -0.400584
LeftFoot  10.7569 0.0616789 -0.721781
LeftToes  -33.6928 8.556e-007 1.17171e-007
Spine  2.16169 1.57695 3.36871
Spine1  4.25761 3.16838 6.51149
RightShoulder  0.119658 5.69071 8.72486
RightArm  -34.095 -16.4869 67.4351
RightForeArm  31.3242 14.9642 2.69552
RightHand  1.08918 -13.157 -9.00077
LeftShoulder1  0.0180425 1.44561 -9.85792
LeftArm  -15.9992 15.6683 -73.6911
LeftForeArm  27.4223 -18.4568 -3.36717
LeftHand  0.123306 5.0365 2.67927
HEad  -15.2925 40.4868 -13.5395
RightUpLeg  -9.30351 -9.97932 7.32439
RightLeg  14.8223 3.12508 0.615698
RightFoot  -3.60183 -0.0109467 -0.192141
RightToes  -26.0507 -0.127312 -0.234465
353
root  -0.58444 33.6038 -4.05033 0.216219 38.7609 -5.92284
LeftUpLeg  -13.2532 -2.03751 18.5498
LeftLeg  10.2609 -3.40421 -0.393568
LeftFoot  10.727 0.0604402 -0.702529
LeftToes  -33.6776 8.556e-007 1.17171e-007
Spine  2.16108 1.56739 3.36076
Spine1  4.24736 3.15006 6.49384
RightShoulder  0.119652 5.71228 8.72806
RightArm  -34.156 -16.4662 67.4112
RightForeArm  31.3691 14.9688 2.69635
RightHand  1.08517 -13.1808 -8.99758
LeftShoulder1  0.0180425 1.42226 -9.86174
LeftArm  -16.0372 15.6282 -73.6731
LeftForeArm  27.4185 -18.4732 -3.37039
LeftHand  0.124319 4.98943 2.71482
HEad  -15.2672 40.558 -13.6476
RightUpLeg  -9.31541 -9.95697 7.3251
RightLeg  14.8481 3.19218 0.630378
RightFoot  -3.58749 -0.0108476 -0.193681
RightToes  -26.0821 -0.127312 -0.234465
354
root  -0.589108 33.602 -4.06257 0.185032 38.6858 -5.92997
LeftUpLeg  -13.2512 -2.03318 18.5597
LeftLeg  10.3278 -3.3561 -0.39201
LeftFoot  10.7047 0.0597839 -0.692328
LeftToes  -33.7164 8.556e-007 1.17171e-007
Spine  2.16258 1.56147 3.35328
Spine1  4.2362 3.13994 6.47624
RightShoulder  0.119637 5.74277 8.7213
RightArm  -34.1982 -16.4086 67.3845
RightForeArm  31.4389 15.0043 2.70299
RightHand  1.07465 -13.1295 -8.94349
LeftShoulder1  0.0180425 1.37629 -9.86457
LeftArm  -16.0599 15.5429 -73.6661
LeftForeArm  27.3888 -18.5021 -3.37605
LeftHand  0.123921 4.98491 2.67158
HEad  -15.2493 40.5819 -13.6852
RightUpLeg  -9.32296 -9.9343 7.32677
RightLeg  14.8767 3.25181 0.643811
RightFoot  -3.56201 -0.0107903 -0.19457
RightToes  -26.1817 -0.127312 -0.234465
355
root  -0.595323 33.6001 -4.07987 0.136914 38.6045 -5.94398
LeftUpLeg  -13.26 -2.00042 18.5685
LeftLeg  10.4317 -3.32893 -0.394974
LeftFoot  10.6655 0.059305 -0.684886
LeftToes  -33.714 8.556e-007 1.17171e-007
Spine  2.16463 1.55785 3.34665
Spine1  4.25166 3.13572 6.45815
RightShoulder  0.119617 5.78606 8.71595
RightArm  -34.2016 -16.2711 67.3641
RightForeArm  31.445 15.0707 2.71553
RightHand  1.07146 -13.1208 -8.92219
LeftShoulder1  0.0180425 1.35408 -9.8646
LeftArm  -16.0798 15.4222 -73.6805
LeftForeArm  27.4043 -18.5684 -3.38905
LeftHand  0.124936 4.93324 2.70246
HEad  -15.2684 40.5137 -13.7449
RightUpLeg  -9.3337 -9.90678 7.32992
RightLeg  14.9258 3.29575 0.655419
RightFoot  -3.55766 -0.0107654 -0.194957
RightToes  -26.2048 -0.127312 -0.234465
356
root  -0.602427 33.5985 -4.0978 0.0791167 38.5554 -5.96578
LeftUpLeg  -13.272 -1.9827 18.583
LeftLeg  10.5198 -3.3202 -0.399128
LeftFoot  10.639 0.0590838 -0.681448
LeftToes  -33.7164 8.556e-007 1.17171e-007
Spine  2.16571 1.55785 3.34138
Spine1  4.25699 3.13456 6.44246
RightShoulder  0.119607 5.80136 8.70854
RightArm  -34.1166 -16.1242 67.3559
RightForeArm  31.3599 15.1965 2.73935
RightHand  1.07085 -13.1088 -8.89164
LeftShoulder1  0.0180425 1.327 -9.84896
LeftArm  -16.044 15.2818 -73.7107
LeftForeArm  27.3586 -18.6461 -3.40431
LeftHand  0.125601 4.89448 2.71698
HEad  -15.1658 40.3824 -13.7273
RightUpLeg  -9.30849 -9.89644 7.33548
RightLeg  14.9038 3.32823 0.660541
RightFoot  -3.53097 -0.010763 -0.194994
RightToes  -26.2116 -0.127312 -0.234465
357
root  -0.610584 33.5972 -4.11675 0.0133021 38.5119 -5.99794
LeftUpLeg  -13.2755 -1.91743 18.604
LeftLeg  10.5804 -3.3653 -0.408145
LeftFoot  10.6367 0.0595915 -0.689339
LeftToes  -33.7482 8.556e-007 1.17171e-007
Spine  2.16487 1.55785 3.33653
Spine1  4.25283 3.13439 6.42667
RightShoulder  0.119609 5.7923 8.70635
RightArm  -33.8993 -15.9505 67.3585
RightForeArm  31.1859 15.3343 2.76555
RightHand  1.07283 -13.0878 -8.92877
LeftShoulder1  0.0180425 1.31616 -9.8613
LeftArm  -15.9125 15.1648 -73.704
LeftForeArm  27.2933 -18.7969 -3.43399
LeftHand  0.124323 4.94093 2.6539
HEad  -14.6573 40.0708 -13.5144
RightUpLeg  -9.27145 -9.94361 7.34848
RightLeg  14.8503 3.41025 0.673502
RightFoot  -3.48528 -0.0107736 -0.19483
RightToes  -26.4145 -0.127312 -0.234465
